<?xml version="1.0" encoding="iso-8859-1"?>
<!-- Generator: Adobe Illustrator 19.0.0, SVG Export Plug-In . SVG Version: 6.00 Build 0)  -->
<svg xmlns="http://www.w3.org/2000/svg" xmlns:xlink="http://www.w3.org/1999/xlink" version="1.1" id="Capa_1" x="0px" y="0px" viewBox="0 0 499.2 499.2" style="enable-background:new 0 0 499.2 499.2;" xml:space="preserve" width="512px" height="512px">
<g>
	<g>
		<g>
			<path d="M281.6,83.2h-16v192H106.512c0.669-8.352,1.936-16.645,3.792-24.816l-31.152-7.344c-3.7,15.786-5.563,31.946-5.552,48.16     c0,114.875,93.125,208,208,208s208-93.125,208-208S396.475,83.2,281.6,83.2z M124.88,371.2     c-10.222-19.947-16.507-41.676-18.512-64H169.6c1.41,21.828,5.797,43.361,13.04,64H124.88z M146.16,403.2h50.176     c11.322,21.566,25.844,41.294,43.072,58.512l0.24,0.24C202.99,452.903,170.214,432.305,146.16,403.2z M265.6,442.656     l-3.568-3.568c-10.814-10.885-20.407-22.92-28.608-35.888H265.6V442.656z M265.6,371.2h-49.024     c-8.354-20.404-13.409-42.008-14.976-64h64V371.2z M438.4,211.2c10.222,19.947,16.507,41.676,18.512,64h-64     c-1.41-21.828-5.797-43.361-13.04-64H438.4z M417.04,179.2h-50.976c-11.333-21.577-25.865-41.315-43.104-58.544l-0.464-0.464     C359.571,129.101,392.749,149.809,417.04,179.2z M297.6,140.544l2.736,2.736c10.824,10.896,20.428,22.941,28.64,35.92H297.6     V140.544z M297.6,211.2h48.208c8.372,20.4,13.439,42.005,15.008,64H297.6V211.2z M297.6,307.2h63.216     c-1.569,21.995-6.636,43.6-15.008,64H297.6V307.2z M297.6,441.856V403.2h31.376c-8.212,12.979-17.816,25.024-28.64,35.92     L297.6,441.856z M322.496,462.208l0.464-0.464c17.239-17.229,31.771-36.967,43.104-58.544h50.976     C392.749,432.591,359.571,453.299,322.496,462.208z M438.4,371.2h-58.624c7.243-20.639,11.63-42.172,13.04-64h64     C454.841,329.517,448.589,351.246,438.4,371.2z" fill="#FFFFFF"/>
			<path d="M121.6,228.064l5.056-1.696c16.564-5.506,32.087-13.754,45.92-24.4l-19.536-25.344     c-9.569,7.359-20.16,13.283-31.44,17.584c-48.208-18.36-80.049-64.607-80-116.192V66.464c28.575-2.603,56.061-12.245,80-28.064     c23.941,15.813,51.426,25.45,80,28.048V78c0.008,9.606-1.103,19.18-3.312,28.528l31.152,7.344     c2.763-11.752,4.159-23.784,4.16-35.856V35.2h-16c-28.147,0.002-55.661-8.351-79.056-24L121.6,0l-16.944,11.2     C81.261,26.849,53.747,35.202,25.6,35.2h-16v42.816c-0.065,67.336,43.04,127.13,106.944,148.352L121.6,228.064z" fill="#FFFFFF"/>
			<path d="M217.392,147.344l-28.688-14.192c-4.192,8.484-9.34,16.461-15.344,23.776l24.752,20.288     C205.651,168.023,212.12,158.001,217.392,147.344z" fill="#FFFFFF"/>
			<polygon points="121.6,108.576 100.912,87.888 78.288,110.512 121.6,153.824 180.912,94.512 158.288,71.888    " fill="#FFFFFF"/>
		</g>
	</g>
</g>
<g>
</g>
<g>
</g>
<g>
</g>
<g>
</g>
<g>
</g>
<g>
</g>
<g>
</g>
<g>
</g>
<g>
</g>
<g>
</g>
<g>
</g>
<g>
</g>
<g>
</g>
<g>
</g>
<g>
</g>
</svg>
